<svg width="68" height="18" viewBox="0 0 68 18" fill="none" xmlns="http://www.w3.org/2000/svg">
<path d="M0.615234 12.3652L2.14453 10.6338C2.33789 11.1084 2.64844 11.4834 3.07617 11.7588C3.50391 12.0283 3.98438 12.1631 4.51758 12.1631C5.16211 12.1631 5.67188 12.0107 6.04688 11.7061C6.42188 11.4014 6.60938 10.9912 6.60938 10.4756C6.60938 9.86621 5.98535 9.25977 4.7373 8.65625C4.33301 8.46289 4.01367 8.30469 3.7793 8.18164C2.6543 7.5957 1.875 7.02441 1.44141 6.46777C1.00781 5.90527 0.791016 5.2373 0.791016 4.46387C0.791016 3.40332 1.20996 2.5332 2.04785 1.85352C2.8916 1.16797 3.98438 0.825195 5.32617 0.825195C6.10547 0.825195 6.77637 0.962891 7.33887 1.23828C7.90723 1.50781 8.4082 1.93262 8.8418 2.5127L7.21582 4.06836C7.02246 3.69336 6.76465 3.41504 6.44238 3.2334C6.12598 3.0459 5.74219 2.95215 5.29102 2.95215C4.74609 2.95215 4.30664 3.08984 3.97266 3.36523C3.63867 3.63477 3.47168 3.98633 3.47168 4.41992C3.47168 5.09961 4.13379 5.7207 5.45801 6.2832C5.72168 6.39453 5.92383 6.48242 6.06445 6.54688C7.1543 7.04492 7.95996 7.60742 8.48145 8.23438C9.00879 8.86133 9.27246 9.57617 9.27246 10.3789C9.27246 11.5859 8.85938 12.5498 8.0332 13.2705C7.21289 13.9854 6.1084 14.3428 4.71973 14.3428C3.73535 14.3428 2.8916 14.1729 2.18848 13.833C1.48535 13.4932 0.960938 13.0039 0.615234 12.3652ZM11.1885 1.83594C11.1885 1.4375 11.332 1.09473 11.6191 0.807617C11.9062 0.520508 12.249 0.376953 12.6475 0.376953C13.0518 0.376953 13.3975 0.520508 13.6846 0.807617C13.9775 1.08887 14.124 1.43164 14.124 1.83594C14.124 2.24023 13.9775 2.58594 13.6846 2.87305C13.3975 3.16016 13.0518 3.30371 12.6475 3.30371C12.249 3.30371 11.9062 3.15723 11.6191 2.86426C11.332 2.57129 11.1885 2.22852 11.1885 1.83594ZM11.4082 14V5.37793H13.9043V14H11.4082ZM25.0664 13.8594C25.0664 14.7676 25.0107 15.4062 24.8994 15.7754C24.7939 16.1445 24.6094 16.4639 24.3457 16.7334C23.9707 17.1377 23.4902 17.4365 22.9043 17.6299C22.3184 17.8232 21.6064 17.9199 20.7686 17.9199C19.3682 17.9199 18.3047 17.6973 17.5781 17.252C16.8516 16.8066 16.4561 16.1299 16.3916 15.2217H19.1426C19.1836 15.5557 19.3359 15.8018 19.5996 15.96C19.8633 16.1182 20.2529 16.1973 20.7686 16.1973C21.4482 16.1973 21.9375 16.0215 22.2363 15.6699C22.541 15.3184 22.6934 14.7324 22.6934 13.9121V12.6816C22.3594 13.2148 21.9551 13.6104 21.4805 13.8682C21.0117 14.126 20.4551 14.2549 19.8105 14.2549C18.627 14.2549 17.6807 13.8418 16.9717 13.0156C16.2627 12.1836 15.9082 11.0645 15.9082 9.6582C15.9082 8.22852 16.2539 7.10938 16.9453 6.30078C17.6367 5.49219 18.5918 5.08789 19.8105 5.08789C20.4375 5.08789 20.9941 5.23438 21.4805 5.52734C21.9727 5.81445 22.3828 6.23926 22.7109 6.80176V5.37793H25.0664V13.8594ZM22.7988 9.67578C22.7988 8.91406 22.6055 8.31348 22.2188 7.87402C21.832 7.43457 21.3047 7.21484 20.6367 7.21484C19.9512 7.21484 19.415 7.43457 19.0283 7.87402C18.6416 8.30762 18.4482 8.9082 18.4482 9.67578C18.4482 10.4434 18.6387 11.041 19.0195 11.4688C19.4004 11.8965 19.9336 12.1104 20.6191 12.1104C21.3047 12.1104 21.8379 11.8965 22.2188 11.4688C22.6055 11.041 22.7988 10.4434 22.7988 9.67578ZM27.5361 14V5.37793H29.9883V6.73145C30.4395 6.16895 30.9229 5.75586 31.4385 5.49219C31.96 5.22266 32.5371 5.08789 33.1699 5.08789C33.8379 5.08789 34.3975 5.20215 34.8486 5.43066C35.3057 5.65332 35.666 5.99609 35.9297 6.45898C36.0586 6.69922 36.1494 6.97168 36.2021 7.27637C36.2607 7.5752 36.29 8.04688 36.29 8.69141V8.96387V14H33.7852V9.7373C33.7852 8.67676 33.6621 7.97656 33.416 7.63672C33.1699 7.29688 32.748 7.12695 32.1504 7.12695C31.8047 7.12695 31.4854 7.2002 31.1924 7.34668C30.9053 7.4873 30.665 7.68945 30.4717 7.95312C30.3193 8.1582 30.208 8.39258 30.1377 8.65625C30.0732 8.91992 30.041 9.32129 30.041 9.86035V10.2031V14H27.5361ZM55.4854 1.13281V9.13965C55.4854 10.8857 55.0254 12.1895 54.1055 13.0508C53.1855 13.9121 51.7998 14.3428 49.9482 14.3428C48.0674 14.3428 46.667 13.9121 45.7471 13.0508C44.8271 12.1895 44.3672 10.8857 44.3672 9.13965V1.13281H47.1006V8.70898C47.1006 9.76953 47.335 10.5693 47.8037 11.1084C48.2725 11.6416 48.9727 11.9082 49.9043 11.9082C50.8418 11.9082 51.5508 11.6387 52.0312 11.0996C52.5117 10.5605 52.752 9.76367 52.752 8.70898V1.13281H55.4854ZM60.4072 9.67578C60.4072 10.4551 60.5977 11.0615 60.9785 11.4951C61.3652 11.9287 61.9014 12.1455 62.5869 12.1455C63.2725 12.1455 63.8057 11.9287 64.1865 11.4951C64.5732 11.0615 64.7666 10.4551 64.7666 9.67578C64.7666 8.89648 64.5703 8.28418 64.1777 7.83887C63.791 7.3877 63.2549 7.16211 62.5693 7.16211C61.9072 7.16211 61.3799 7.3877 60.9873 7.83887C60.6006 8.29004 60.4072 8.90234 60.4072 9.67578ZM58.1221 17.9199V5.37793H60.5215V6.80176C60.8496 6.22754 61.251 5.7998 61.7256 5.51855C62.2061 5.23145 62.7627 5.08789 63.3955 5.08789C64.6201 5.08789 65.5781 5.49512 66.2695 6.30957C66.9609 7.11816 67.3066 8.24902 67.3066 9.70215C67.3066 11.1025 66.958 12.2275 66.2607 13.0771C65.5635 13.9209 64.6465 14.3428 63.5098 14.3428C62.8242 14.3428 62.2412 14.2168 61.7607 13.9648C61.2861 13.707 60.8789 13.3057 60.5391 12.7607C60.5684 12.9775 60.5889 13.2148 60.6006 13.4727C60.6182 13.7246 60.627 14.0146 60.627 14.3428V17.9199H58.1221Z" fill="black"/>
</svg>
